<svg id="instagram" xmlns="http://www.w3.org/2000/svg" viewBox="0 0 364 364"><defs><style>.cls-1{fill:#424242;}</style></defs><title>instagram</title><path class="cls-1" d="M244.42,83.44H119.58a36.18,36.18,0,0,0-36.14,36.14V244.42a36.18,36.18,0,0,0,36.14,36.14H244.42a36.18,36.18,0,0,0,36.14-36.14V119.58A36.18,36.18,0,0,0,244.42,83.44ZM182,246.89a64.89,64.89,0,1,1,64.9-64.9A65,65,0,0,1,182,246.89Zm67-116.37a15.35,15.35,0,1,1,15.35-15.35A15.37,15.37,0,0,1,249,130.52Z"/><path class="cls-1" d="M182,144.53A37.47,37.47,0,1,0,219.47,182,37.52,37.52,0,0,0,182,144.53Z"/><path class="cls-1" d="M0,0V364H364V0ZM308,244.42A63.63,63.63,0,0,1,244.42,308H119.58A63.63,63.63,0,0,1,56,244.42V119.58A63.63,63.63,0,0,1,119.58,56H244.42A63.63,63.63,0,0,1,308,119.58Z"/></svg>